<svg xmlns="http://www.w3.org/2000/svg" xmlns:xlink="http://www.w3.org/1999/xlink" width="1024" zoomAndPan="magnify" viewBox="0 0 768 767.999994" height="1024" preserveAspectRatio="xMidYMid meet" version="1.0"><defs><g/><clipPath id="id1"><path d="M 593.261719 328.386719 L 736.511719 328.386719 L 736.511719 483 L 593.261719 483 Z M 593.261719 328.386719 " clip-rule="nonzero"/></clipPath><clipPath id="id2"><path d="M 152 442.964844 L 174 442.964844 L 174 460 L 152 460 Z M 152 442.964844 " clip-rule="nonzero"/></clipPath><clipPath id="id3"><path d="M 148.34375 461.46875 L 178.292969 461.46875 L 178.292969 546.464844 L 148.34375 546.464844 Z M 148.34375 461.46875 " clip-rule="nonzero"/></clipPath><clipPath id="id4"><path d="M 350 443.714844 L 372 443.714844 L 372 461 L 350 461 Z M 350 443.714844 " clip-rule="nonzero"/></clipPath><clipPath id="id5"><path d="M 346.433594 462.21875 L 376.382812 462.21875 L 376.382812 547.214844 L 346.433594 547.214844 Z M 346.433594 462.21875 " clip-rule="nonzero"/></clipPath><clipPath id="id6"><path d="M 538 442.964844 L 560 442.964844 L 560 460 L 538 460 Z M 538 442.964844 " clip-rule="nonzero"/></clipPath><clipPath id="id7"><path d="M 533.734375 461.46875 L 563.683594 461.46875 L 563.683594 546.464844 L 533.734375 546.464844 Z M 533.734375 461.46875 " clip-rule="nonzero"/></clipPath></defs><rect x="-76.8" width="921.6" fill="rgb(100%, 100%, 100%)" y="-76.799999" height="921.599993" fill-opacity="1"/><rect x="-76.8" width="921.6" fill="rgb(100%, 100%, 100%)" y="-76.799999" height="921.599993" fill-opacity="1"/><rect x="-76.8" width="921.6" fill="rgb(12.939453%, 11.369324%, 11.369324%)" y="-76.799999" height="921.599993" fill-opacity="1"/><g clip-path="url(#id1)"><path fill="rgb(100%, 100%, 100%)" d="M 736.058594 424.839844 C 732.976562 420.328125 711.742188 373.164062 711.429688 370.375 C 718.160156 369.359375 722.449219 363.828125 722.472656 358.09375 C 722.496094 353.53125 718.105469 352.09375 716.238281 354.117188 C 714.988281 355.464844 715.773438 357.6875 717.039062 357.78125 C 717.046875 359.894531 715.976562 360.496094 714.375 362.0625 C 712.820312 363.578125 707.429688 361.667969 705.4375 360.824219 C 702.28125 359.488281 699.40625 357.671875 695.621094 355.375 L 695.625 355.382812 C 691.164062 352.746094 689.179688 351.960938 686.996094 351.210938 L 686.996094 351.203125 C 678.824219 348.851562 675.261719 351.253906 672.832031 352.625 L 672.882812 352.648438 L 672.804688 352.660156 C 670.949219 353.820312 670.117188 354.539062 668.46875 354.929688 C 668.46875 354.929688 667.792969 354.652344 667.792969 354.652344 C 667.300781 354.445312 667.078125 351.152344 667.742188 349.699219 C 668.964844 347.03125 673.03125 346.617188 673.792969 341.894531 C 674.417969 338.144531 672.3125 335.460938 669.578125 332.921875 C 669.578125 332.921875 669.617188 332.902344 669.617188 332.902344 C 669.574219 332.921875 668.660156 332.007812 668.574219 331.921875 C 668.105469 331.46875 667.78125 330.890625 667.417969 330.359375 C 666.0625 328.386719 664.667969 328.875 664.890625 328.855469 C 662.445312 329.074219 662.070312 331.335938 661.152344 332.152344 L 660.210938 333.035156 L 660.246094 333.046875 C 659.015625 334.195312 656.964844 335.964844 656.273438 338.984375 C 655.460938 342.414062 656.871094 344.894531 659.566406 347.046875 C 661.421875 348.527344 663.058594 349.335938 662.523438 353.488281 C 662.292969 355.265625 661.792969 355.128906 660.746094 354.730469 C 655.5625 352.75 652.269531 344.847656 633.242188 356.019531 L 633.257812 356.035156 C 632.550781 356.460938 632.515625 356.460938 631.6875 357.003906 L 631.667969 357.078125 C 628.445312 358.828125 625.21875 360.96875 620.917969 362.066406 C 619.664062 362.386719 618.300781 362.902344 616.996094 362.613281 C 614.699219 362.105469 612.75 359.433594 612.925781 357.792969 C 612.921875 357.820312 613.660156 357.433594 613.726562 357.367188 C 615.257812 355.894531 613.929688 352.617188 610.800781 353.3125 C 604.058594 354.8125 607.941406 369.378906 618.542969 370.277344 C 618.367188 371.757812 604.371094 405.175781 594.054688 424.371094 C 593.730469 425.21875 593.277344 425.523438 593.554688 426.347656 C 593.925781 427.464844 595.648438 428.472656 596.75 428.875 C 596.914062 428.882812 596.910156 428.878906 596.910156 428.878906 C 598.609375 435.476562 603.609375 441.472656 608.03125 444.410156 C 614.160156 448.492188 623.257812 448.488281 627.207031 447.796875 C 634.585938 446.542969 644.800781 440.152344 647.664062 431.605469 C 648.050781 430.449219 648.0625 430.441406 648.539062 429.164062 C 650.4375 429.175781 651.3125 427.007812 651.582031 426.628906 C 651.679688 425.355469 651.207031 424.503906 649.917969 424.105469 C 646.203125 415.816406 645.402344 417.738281 637.332031 397.40625 C 628.128906 374.144531 630.800781 376.644531 626.851562 369.164062 C 627.171875 368.984375 627.492188 368.804688 627.808594 368.625 C 627.769531 368.652344 627.757812 368.746094 627.757812 368.789062 C 629.246094 367.980469 631.785156 365.128906 635.808594 362.878906 L 635.796875 362.804688 C 637.925781 361.984375 638.210938 361.886719 638.773438 361.59375 C 641.550781 361.191406 649.574219 359.257812 656.40625 370.257812 L 656.398438 370.351562 C 656.980469 371.511719 658.765625 376.023438 659.042969 377.09375 C 656.113281 377.425781 656 380.207031 655.828125 383.015625 L 655.90625 382.976562 C 655.914062 383.800781 656.035156 384.550781 656.210938 385.332031 L 656.121094 385.351562 C 656.332031 385.769531 656.273438 385.597656 656.390625 386.113281 L 656.488281 386.078125 C 657.007812 387.109375 657.75 388.128906 658.53125 389.039062 L 658.769531 389.84375 C 659.257812 391.507812 657.214844 392.566406 656.949219 395.582031 C 656.675781 398.707031 658.132812 399.96875 658.007812 401.621094 C 657.84375 403.832031 656.917969 404.464844 657.816406 407.042969 L 657.792969 407.082031 C 658.046875 407.578125 658.226562 408.121094 658.429688 408.640625 C 658.675781 409.265625 659.097656 409.609375 659.101562 410.359375 C 659.101562 410.945312 658.855469 411.503906 658.6875 412.058594 C 656.230469 420.210938 662.285156 422.988281 651.21875 443.464844 L 651.203125 443.445312 C 649.027344 447.574219 647.757812 449.125 649.511719 454.800781 C 651.097656 459.925781 649.296875 459.886719 644.226562 464.277344 L 644.277344 464.3125 C 643.957031 464.628906 635.847656 473.652344 635.597656 473.929688 C 635.277344 474.28125 637.015625 475.726562 637.261719 475.882812 C 638.796875 476.863281 639.707031 476.808594 644.394531 478.488281 C 660.851562 484.386719 678.597656 482.675781 692.179688 476.292969 C 693.453125 475.664062 694.367188 474.871094 694.289062 473.480469 C 694.289062 473.472656 693.191406 472.585938 693.078125 472.46875 C 693.035156 472.421875 689.363281 468.292969 689.363281 468.238281 C 685.585938 463.875 686.0625 464.613281 684.378906 463.078125 L 684.351562 463.101562 C 678.476562 458.445312 679.421875 459.035156 681.199219 451.976562 L 681.113281 452.015625 C 681.589844 448.890625 680.753906 447.445312 679.574219 444.859375 L 679.527344 444.90625 C 678.8125 443.558594 678.5625 443.246094 677.792969 441.59375 L 677.773438 441.59375 C 674.003906 433.628906 673.054688 430.871094 672.015625 426.34375 C 672.015625 426.34375 671.894531 425.253906 671.847656 424.6875 L 671.828125 424.691406 C 671.71875 422.78125 671.75 421.890625 671.851562 420.238281 L 671.824219 420.230469 C 671.949219 417.171875 672.007812 415.542969 671.53125 413.058594 L 671.539062 413.054688 C 671.507812 412.9375 671.53125 413.050781 671.40625 412.402344 L 671.367188 412.421875 C 671.097656 411.425781 670.796875 410.578125 670.980469 409.75 C 671.109375 409.171875 671.441406 408.058594 671.957031 407.695312 C 672.628906 406.136719 672.671875 404.648438 672.234375 403.027344 C 671.273438 399.453125 674.835938 397.566406 671.808594 392.195312 C 670.925781 390.628906 671.066406 390.625 671.296875 389.039062 C 671.507812 388.878906 671.644531 388.78125 671.796875 388.53125 L 671.796875 388.5625 L 673.125 386.703125 C 674.257812 385.117188 675.21875 377.832031 670.988281 377.089844 L 670.886719 377.195312 L 670.859375 377.171875 C 671.257812 375.933594 672.941406 371.683594 673.109375 371.28125 L 673.089844 371.242188 C 676.550781 364.59375 681.675781 361.554688 686.316406 361.234375 C 687.484375 361.15625 687.570312 361.121094 689.976562 361.398438 L 689.972656 361.332031 L 690.015625 361.417969 C 692.625 362.050781 693.441406 362.492188 695.785156 363.785156 L 695.78125 363.847656 C 697.121094 364.726562 696.835938 364.527344 701.589844 368.375 L 701.496094 368.179688 C 702.023438 368.542969 702.578125 368.863281 703.152344 369.144531 C 699.128906 375.957031 701.152344 377.308594 691.160156 400.988281 C 683.199219 419.957031 683.984375 415.382812 680.027344 424.109375 C 678.738281 424.515625 678.273438 425.351562 678.367188 426.558594 C 678.601562 426.949219 679.453125 429.152344 681.421875 429.15625 C 683.449219 434.632812 682.320312 432.933594 684.210938 435.699219 C 687.957031 441.183594 693.769531 445.285156 699.625 447.050781 C 706.816406 449.222656 715.925781 447.914062 720.234375 445.390625 C 726.164062 441.914062 731.09375 436.128906 733.066406 428.875 C 733.9375 428.753906 736.304688 427.386719 736.457031 426.085938 C 736.492188 425.78125 736.449219 425.324219 736.058594 424.839844 Z M 631.277344 390.105469 C 635.140625 402.285156 644.433594 422.46875 645.511719 423.957031 C 643.277344 424.113281 643.195312 424.179688 637.867188 424.003906 C 620.261719 423.425781 632.703125 424.84375 598.867188 423.722656 C 600.125 419.480469 602.761719 416.128906 604.671875 412.082031 C 607.066406 407.046875 609.152344 401.832031 611.449219 396.785156 C 615.605469 387.53125 619.15625 380.074219 621.394531 370.527344 C 622.167969 370.511719 622.910156 370.472656 623.886719 370.261719 C 625.460938 372.175781 630.503906 387.734375 631.277344 390.105469 Z M 639.546875 357.953125 C 639.636719 357.847656 639.703125 357.738281 639.753906 357.621094 C 639.753906 357.71875 639.679688 357.859375 639.546875 357.953125 Z M 653.445312 363.453125 C 653.433594 363.433594 653.425781 363.410156 653.417969 363.382812 C 653.433594 363.375 653.460938 363.371094 653.492188 363.375 C 653.484375 363.398438 653.46875 363.425781 653.445312 363.453125 Z M 661.722656 366.703125 C 661.703125 366.675781 661.695312 366.648438 661.6875 366.621094 C 661.71875 366.613281 661.730469 366.621094 661.738281 366.625 C 661.738281 366.652344 661.730469 366.679688 661.722656 366.703125 Z M 678.289062 361.871094 C 678.285156 361.851562 678.285156 361.832031 678.289062 361.8125 C 678.332031 361.820312 678.367188 361.839844 678.390625 361.859375 Z M 717.527344 424.125 C 710.578125 424.507812 703.589844 423.820312 699.097656 423.863281 C 692.839844 423.816406 689.664062 424.332031 684.453125 423.949219 C 684.675781 423.734375 684.523438 423.863281 684.804688 423.628906 C 685.242188 422.5 685.128906 422.191406 686.484375 419.671875 C 688.523438 416.085938 695.199219 400.402344 697.855469 392.605469 C 705.160156 371.160156 704.417969 372.328125 706.101562 370.179688 C 706.902344 370.363281 707.726562 370.472656 708.554688 370.515625 C 711.039062 381.042969 714.335938 387.253906 722.847656 406.710938 C 728.070312 418.484375 729.667969 418.847656 731.09375 423.777344 C 731.09375 423.777344 726.019531 423.757812 717.527344 424.125 Z M 717.527344 424.125 " fill-opacity="1" fill-rule="nonzero"/></g><g clip-path="url(#id2)"><path fill="rgb(100%, 100%, 100%)" d="M 158.933594 459.960938 L 167.703125 459.960938 C 171.03125 459.960938 173.753906 457.179688 173.753906 453.78125 L 173.753906 449.144531 C 173.753906 445.746094 171.03125 442.964844 167.703125 442.964844 L 158.933594 442.964844 C 155.605469 442.964844 152.882812 445.746094 152.882812 449.144531 L 152.882812 453.78125 C 152.882812 457.179688 155.605469 459.960938 158.933594 459.960938 " fill-opacity="1" fill-rule="nonzero"/></g><g clip-path="url(#id3)"><path fill="rgb(100%, 100%, 100%)" d="M 168.613281 461.503906 L 157.417969 461.503906 L 148.34375 532.875 L 163.316406 546.46875 L 178.292969 532.257812 L 168.613281 461.503906 " fill-opacity="1" fill-rule="nonzero"/></g><g fill="rgb(100%, 100%, 100%)" fill-opacity="1"><g transform="translate(19.465157, 480.204107)"><g><path d="M 69.464844 -139.277344 C 67.375 -139.277344 66.15625 -138.234375 65.632812 -136.144531 L 47.179688 -42.828125 L 28.898438 -136.144531 C 28.378906 -138.234375 27.160156 -139.277344 25.070312 -139.277344 L 8.53125 -139.277344 C 5.917969 -139.277344 4.875 -137.886719 5.398438 -135.449219 L 34.644531 -3.132812 C 35.167969 -1.042969 36.386719 0 38.476562 0 L 55.886719 0 C 57.972656 0 59.191406 -1.042969 59.714844 -3.132812 L 89.136719 -135.449219 C 89.660156 -137.886719 88.617188 -139.277344 86.003906 -139.277344 Z M 69.464844 -139.277344 "/></g></g></g><g fill="rgb(100%, 100%, 100%)" fill-opacity="1"><g transform="translate(113.998077, 480.204107)"><g><path d="M 92.621094 0 C 94.710938 0 95.40625 -1.042969 95.058594 -2.960938 L 66.15625 -136.839844 C 65.808594 -138.582031 64.765625 -139.277344 63.199219 -139.277344 L 38.996094 -139.277344 C 37.429688 -139.277344 36.386719 -138.582031 36.039062 -136.839844 L 7.136719 -2.960938 C 6.617188 -1.042969 7.484375 0 9.402344 0 L 28.03125 0 C 29.597656 0 30.46875 -0.871094 30.816406 -2.4375 L 35.515625 -27.855469 L 66.503906 -27.855469 L 71.378906 -2.4375 C 71.726562 -0.871094 72.597656 0 74.164062 0 Z M 62.152344 -48.050781 L 39.867188 -48.050781 L 51.011719 -108.8125 Z M 62.152344 -48.050781 "/></g></g></g><g fill="rgb(100%, 100%, 100%)" fill-opacity="1"><g transform="translate(216.017012, 480.204107)"><g><path d="M 83.21875 0 C 86.003906 0 87.046875 -1.742188 85.828125 -4.003906 L 54.320312 -74.339844 L 83.914062 -135.101562 C 85.132812 -137.535156 84.089844 -139.277344 81.476562 -139.277344 L 63.199219 -139.277344 C 61.28125 -139.277344 60.0625 -138.40625 59.191406 -136.667969 L 32.382812 -81.824219 L 32.382812 -135.796875 C 32.382812 -138.058594 31.164062 -139.277344 28.898438 -139.277344 L 12.1875 -139.277344 C 9.921875 -139.277344 8.703125 -138.058594 8.703125 -135.796875 L 8.703125 -3.480469 C 8.703125 -1.21875 9.921875 0 12.1875 0 L 28.898438 0 C 31.164062 0 32.382812 -1.21875 32.382812 -3.480469 L 32.382812 -41.957031 L 38.824219 -54.320312 L 60.761719 -2.613281 C 61.457031 -0.871094 62.675781 0 64.765625 0 Z M 83.21875 0 "/></g></g></g><g fill="rgb(100%, 100%, 100%)" fill-opacity="1"><g transform="translate(309.331262, 480.204107)"><g><path d="M 92.621094 0 C 94.710938 0 95.40625 -1.042969 95.058594 -2.960938 L 66.15625 -136.839844 C 65.808594 -138.582031 64.765625 -139.277344 63.199219 -139.277344 L 38.996094 -139.277344 C 37.429688 -139.277344 36.386719 -138.582031 36.039062 -136.839844 L 7.136719 -2.960938 C 6.617188 -1.042969 7.484375 0 9.402344 0 L 28.03125 0 C 29.597656 0 30.46875 -0.871094 30.816406 -2.4375 L 35.515625 -27.855469 L 66.503906 -27.855469 L 71.378906 -2.4375 C 71.726562 -0.871094 72.597656 0 74.164062 0 Z M 62.152344 -48.050781 L 39.867188 -48.050781 L 51.011719 -108.8125 Z M 62.152344 -48.050781 "/></g></g></g><g fill="rgb(100%, 100%, 100%)" fill-opacity="1"><g transform="translate(411.350209, 480.204107)"><g><path d="M 32.382812 -22.980469 L 73.816406 -22.980469 C 75.730469 -22.980469 76.601562 -21.9375 76.601562 -20.195312 L 76.601562 -2.785156 C 76.601562 -0.871094 75.730469 0 73.816406 0 L 11.492188 0 C 9.75 0 8.703125 -0.871094 8.703125 -2.785156 L 8.703125 -136.492188 C 8.703125 -138.234375 9.75 -139.277344 11.492188 -139.277344 L 29.597656 -139.277344 C 31.511719 -139.277344 32.382812 -138.234375 32.382812 -136.492188 Z M 32.382812 -22.980469 "/></g></g></g><g fill="rgb(100%, 100%, 100%)" fill-opacity="1"><g transform="translate(496.656158, 480.204107)"><g><path d="M 92.621094 0 C 94.710938 0 95.40625 -1.042969 95.058594 -2.960938 L 66.15625 -136.839844 C 65.808594 -138.582031 64.765625 -139.277344 63.199219 -139.277344 L 38.996094 -139.277344 C 37.429688 -139.277344 36.386719 -138.582031 36.039062 -136.839844 L 7.136719 -2.960938 C 6.617188 -1.042969 7.484375 0 9.402344 0 L 28.03125 0 C 29.597656 0 30.46875 -0.871094 30.816406 -2.4375 L 35.515625 -27.855469 L 66.503906 -27.855469 L 71.378906 -2.4375 C 71.726562 -0.871094 72.597656 0 74.164062 0 Z M 62.152344 -48.050781 L 39.867188 -48.050781 L 51.011719 -108.8125 Z M 62.152344 -48.050781 "/></g></g></g><g clip-path="url(#id4)"><path fill="rgb(100%, 100%, 100%)" d="M 357.019531 460.710938 L 365.792969 460.710938 C 369.121094 460.710938 371.84375 457.929688 371.84375 454.53125 L 371.84375 449.894531 C 371.84375 446.496094 369.121094 443.714844 365.792969 443.714844 L 357.019531 443.714844 C 353.691406 443.714844 350.96875 446.496094 350.96875 449.894531 L 350.96875 454.53125 C 350.96875 457.929688 353.691406 460.710938 357.019531 460.710938 " fill-opacity="1" fill-rule="nonzero"/></g><g clip-path="url(#id5)"><path fill="rgb(100%, 100%, 100%)" d="M 366.703125 462.253906 L 355.507812 462.253906 L 346.433594 533.625 L 361.40625 547.21875 L 376.382812 533.007812 L 366.703125 462.253906 " fill-opacity="1" fill-rule="nonzero"/></g><g clip-path="url(#id6)"><path fill="rgb(100%, 100%, 100%)" d="M 544.320312 459.960938 L 553.09375 459.960938 C 556.421875 459.960938 559.144531 457.179688 559.144531 453.78125 L 559.144531 449.144531 C 559.144531 445.746094 556.421875 442.964844 553.09375 442.964844 L 544.320312 442.964844 C 540.996094 442.964844 538.273438 445.746094 538.273438 449.144531 L 538.273438 453.78125 C 538.273438 457.179688 540.996094 459.960938 544.320312 459.960938 " fill-opacity="1" fill-rule="nonzero"/></g><g clip-path="url(#id7)"><path fill="rgb(100%, 100%, 100%)" d="M 554.003906 461.503906 L 542.808594 461.503906 L 533.734375 532.875 L 548.707031 546.46875 L 563.683594 532.257812 L 554.003906 461.503906 " fill-opacity="1" fill-rule="nonzero"/></g></svg>