<svg width="50" height="50" viewBox="0 0 50 50" fill="none" xmlns="http://www.w3.org/2000/svg">
<circle cx="25" cy="25" r="25" fill="#4F3DD1"/>
<path d="M35.1598 16.5643C34.9956 16.4 34.7544 16.3392 34.5319 16.4059L15.2162 22.2007C14.365 22.456 13.7931 23.2247 13.7931 24.1136C13.7931 24.9903 14.3818 25.7707 15.2247 26.0116L23.3819 28.3422L25.7125 36.4994C25.9534 37.3423 26.7338 37.931 27.6108 37.931C28.4994 37.931 29.2681 37.3591 29.5234 36.5079L35.3182 17.1921C35.3849 16.9697 35.3241 16.7285 35.1598 16.5643ZM15.0559 24.1133C15.0559 23.7866 15.2661 23.5041 15.579 23.4102L32.4961 18.3351L23.7089 27.1223L15.5716 24.7974C15.268 24.7106 15.0559 24.4294 15.0559 24.1133ZM28.3139 36.1451C28.22 36.458 27.9375 36.6682 27.6105 36.6682C27.2947 36.6682 27.0135 36.4561 26.9268 36.1525L24.6018 28.0152L33.389 19.228L28.3139 36.1451Z" fill="white"/>
</svg>
